<?xml version="1.0" encoding="UTF-8"?><svg id="Banner" xmlns="http://www.w3.org/2000/svg" xmlns:xlink="http://www.w3.org/1999/xlink" viewBox="0 0 4000 600"><defs><style>.cls-1{fill:url(#linear-gradient);}.cls-2{fill:#f2cd5d;}.cls-3,.cls-4{stroke-width:42.13px;}.cls-3,.cls-4,.cls-5{fill:none;stroke-miterlimit:10;}.cls-3,.cls-5{stroke:#f2cd5d;}.cls-4{stroke:#dea54b;}.cls-5{stroke-width:33.71px;}</style><linearGradient id="linear-gradient" x1="0" y1="300" x2="4000" y2="300" gradientUnits="userSpaceOnUse"><stop offset="0" stop-color="#7678ed"/><stop offset=".18" stop-color="#7274e7"/><stop offset=".39" stop-color="#6969d8"/><stop offset=".64" stop-color="#5b57be"/><stop offset=".9" stop-color="#463f9b"/><stop offset="1" stop-color="#3d348b"/></linearGradient></defs><rect class="cls-1" width="4000" height="600"/><g><g><path class="cls-2" d="m3190.83,305.23h40.45c.34,11.12,10.11,18.54,29.66,18.54,20.56,0,29.32-8.43,29.32-18.54,0-12.81-14.83-14.49-32.69-16.85-25.62-3.37-63.37-7.75-63.37-48.54,0-34.04,25.95-56.29,66.06-56.29s65.72,22.92,66.74,52.24h-39.77c-1.01-10.11-10.45-17.19-26.29-17.19-17.53,0-26.29,8.43-26.29,18.2,0,12.81,15.17,14.83,33.03,17.19,22.25,3.03,63.03,7.42,63.03,48.87,0,33.71-27.3,55.95-69.77,55.95s-69.1-22.58-70.11-53.59Z"/><path class="cls-2" d="m3357.33,259.39c0-52.24,30.33-75.84,69.77-75.84,24.94,0,45.5,10.45,57.64,30,11.8-19.55,32.36-30,57.64-30,39.43,0,69.77,23.59,69.77,75.84v95.05h-40.11v-95.05c0-27.3-14.16-38.42-33.71-38.42s-33.37,11.46-33.37,38.42v95.05h-40.11v-95.05c0-26.96-14.49-38.42-33.71-38.42s-33.71,11.12-33.71,38.42v95.05h-40.11v-95.05Z"/></g><path class="cls-4" d="m3733.59,346.38c0,46.97-38,84.97-84.97,84.97"/><circle class="cls-3" cx="3733.46" cy="277.14" r="69.1"/><circle class="cls-5" cx="3603.65" cy="441.28" r="56.2"/><path class="cls-2" d="m3853.26,127.5h40.11v239.31h-40.11V127.5Z"/></g></svg>