<?xml version="1.0" encoding="UTF-8"?><svg id="Text_-_Light" xmlns="http://www.w3.org/2000/svg" viewBox="0 0 2350 1400"><defs><style>.cls-1{stroke:#dea54b;}.cls-1,.cls-2{stroke-width:125px;}.cls-1,.cls-2,.cls-3{fill:none;stroke-miterlimit:10;}.cls-2,.cls-3{stroke:#f2cd5d;}.cls-4{fill:#f2cd5d;}.cls-3{stroke-width:100px;}</style></defs><path class="cls-4" d="m2088.35,158h119v710h-119V158Z"/><g><path class="cls-4" d="m122.98,685.29h120c1,33,30,55,88,55,61,0,87-25,87-55,0-38-44-43-97-50-76-10-188-23-188-144,0-101,77-167,196-167s195,68,198,155h-118c-3-30-31-51-78-51-52,0-78,25-78,54,0,38,45,44,98,51,66,9,187,22,187,145,0,100-81,166-207,166s-205-67-208-159Z"/><path class="cls-4" d="m616.97,549.29c0-155,90-225,207-225,74,0,135,31,171,89,35-58,96-89,171-89,117,0,207,70,207,225v282h-119v-282c0-81-42-114-100-114s-99,34-99,114v282h-119v-282c0-80-43-114-100-114s-100,33-100,114v282h-119v-282Z"/></g><path class="cls-1" d="m1733.29,807.4c0,139.34-112.75,252.09-252.09,252.09"/><circle class="cls-2" cx="1732.9" cy="601.97" r="205.03"/><circle class="cls-3" cx="1347.77" cy="1088.97" r="166.73"/></svg>